<svg width="306" height="80" viewBox="0 0 306 80" fill="none" xmlns="http://www.w3.org/2000/svg">
<path d="M4.65529 30.6311C4.19149 30.3912 3.60727 29.8983 3.26435 30.2921C2.84307 30.7759 2.61963 32.5533 3.96891 38.2946C3.96891 52.8553 19.5169 64.6591 38.6963 64.6591C57.8757 64.6591 73.4237 52.8553 73.4237 38.2946C73.4237 38.0637 76.0492 27.5784 74.8311 29.3062C74.7752 29.3854 74.7118 29.4668 74.6369 29.5285C73.4916 30.4727 63.2774 38.2946 39.1924 38.2946C20.6697 38.2946 7.70149 32.2068 4.65529 30.6311Z" fill="url(#paint0_linear_111_4)"/>
<path d="M39.027 65.3204C19.5295 65.3204 3.42277 49.1498 2.52039 28.6086H75.5336C74.6312 49.1498 58.5245 65.3204 39.027 65.3204Z" stroke="#116DC4" stroke-width="4.96106"/>
<rect x="31.0892" y="-0.00012207" width="18.1906" height="4.29958" rx="2.14979" transform="rotate(90 31.0892 -0.00012207)" fill="url(#paint1_linear_111_4)"/>
<rect x="51.2643" y="-0.00012207" width="18.1906" height="4.29958" rx="2.14979" transform="rotate(90 51.2643 -0.00012207)" fill="url(#paint2_linear_111_4)"/>
<path fill-rule="evenodd" clip-rule="evenodd" d="M84.6687 43.6572C87.9556 43.6572 90.9527 40.7706 90.9527 37.3731C90.9527 33.615 88.4951 31.0891 84.6687 31.0891L78.3846 31.0891V37.3731C78.3846 40.7501 81.4342 43.6572 84.6687 43.6572ZM73.4236 37.3731C73.4236 43.5836 78.7888 48.6182 84.6687 48.6182C90.6219 48.6182 95.9137 43.5836 95.9137 37.3731C95.9137 30.9237 91.2834 26.128 84.6687 26.1281C83.0394 26.1281 80.2504 26.1281 77.8577 26.1281C75.438 26.1281 73.4236 26.1281 73.4236 26.1281V37.3731Z" fill="#116DC4"/>
<path d="M12.2372 76.4451C12.2372 74.933 13.4135 73.6818 14.9228 73.5886L62.5839 70.6466C64.3361 70.5384 65.8166 71.9303 65.8166 73.6859C65.8166 75.3677 64.4533 76.731 62.7715 76.731H12.5231C12.3652 76.731 12.2372 76.603 12.2372 76.4451Z" fill="#116DC4"/>
<path d="M113.41 57.813H131.077C132.832 57.813 133.82 56.8254 133.82 55.0698V54.7955C133.82 53.0398 132.832 52.0522 131.077 52.0522H117.031V20.8345C117.031 19.0788 116.044 18.0912 114.288 18.0912H113.41C111.655 18.0912 110.667 19.0788 110.667 20.8345V55.0698C110.667 56.8254 111.655 57.813 113.41 57.813ZM147.389 58.5262C152.272 58.5262 156.716 56.0573 158.472 51.8328V55.0149C158.472 56.7706 159.459 57.7581 161.215 57.7581H161.873C163.629 57.7581 164.617 56.7706 164.617 55.0149V29.1738C164.617 27.4182 163.629 26.4306 161.873 26.4306H161.215C159.459 26.4306 158.472 27.4182 158.472 29.1738V32.5754C156.661 28.2411 152.272 25.8271 147.334 25.8271C139.544 25.8271 132.96 31.3135 132.96 42.1218C132.96 52.9849 139.598 58.5262 147.389 58.5262ZM148.925 53.2593C143.055 53.2593 139.105 49.0896 139.105 42.1218C139.105 35.2089 143.055 31.0392 148.816 31.0392C154.631 31.0392 158.636 35.2638 158.636 42.1218C158.636 49.0347 154.686 53.2593 148.925 53.2593ZM186.69 58.5262C194.371 58.5262 201.065 52.9849 201.065 42.1218C201.065 31.3135 194.371 25.8271 186.636 25.8271C181.698 25.8271 177.309 28.2411 175.553 32.5206V18.9691C175.553 17.2134 174.565 16.2259 172.81 16.2259H172.151C170.396 16.2259 169.408 17.2134 169.408 18.9691V55.0149C169.408 56.7706 170.396 57.7581 172.151 57.7581H172.81C174.565 57.7581 175.553 56.7706 175.553 55.0149V51.8328C177.309 56.0573 181.753 58.5262 186.69 58.5262ZM185.209 53.2593C179.339 53.2593 175.388 49.0896 175.388 42.1218C175.388 35.2089 179.339 31.0392 185.099 31.0392C190.97 31.0392 194.92 35.2638 194.92 42.1218C194.92 49.0347 191.025 53.2593 185.209 53.2593ZM221.559 58.5262C229.24 58.5262 235.934 52.9849 235.934 42.1218C235.934 31.3135 229.24 25.8271 221.504 25.8271C216.567 25.8271 212.177 28.2411 210.422 32.5206V18.9691C210.422 17.2134 209.434 16.2259 207.679 16.2259H207.02C205.265 16.2259 204.277 17.2134 204.277 18.9691V55.0149C204.277 56.7706 205.265 57.7581 207.02 57.7581H207.679C209.434 57.7581 210.422 56.7706 210.422 55.0149V51.8328C212.177 56.0573 216.622 58.5262 221.559 58.5262ZM220.078 53.2593C214.207 53.2593 210.257 49.0896 210.257 42.1218C210.257 35.2089 214.207 31.0392 219.968 31.0392C225.839 31.0392 229.789 35.2638 229.789 42.1218C229.789 49.0347 225.894 53.2593 220.078 53.2593ZM252.692 58.5262C257.575 58.5262 262.019 56.0573 263.775 51.8328V55.0149C263.775 56.7706 264.762 57.7581 266.518 57.7581H267.176C268.932 57.7581 269.92 56.7706 269.92 55.0149V29.1738C269.92 27.4182 268.932 26.4306 267.176 26.4306H266.518C264.762 26.4306 263.775 27.4182 263.775 29.1738V32.5754C261.964 28.2411 257.575 25.8271 252.637 25.8271C244.847 25.8271 238.263 31.3135 238.263 42.1218C238.263 52.9849 244.901 58.5262 252.692 58.5262ZM254.228 53.2593C248.358 53.2593 244.408 49.0896 244.408 42.1218C244.408 35.2089 248.358 31.0392 254.119 31.0392C259.934 31.0392 263.939 35.2638 263.939 42.1218C263.939 49.0347 259.989 53.2593 254.228 53.2593ZM283.544 67.9629H284.587C286.123 67.9629 287.22 67.3594 287.824 65.878L303.515 29.6127C304.338 27.7474 303.46 26.4306 301.375 26.4306H300.443C298.906 26.4306 297.864 27.1439 297.26 28.5703L288.043 50.955L278.826 28.5703C278.223 27.1439 277.18 26.4306 275.644 26.4306H274.601C272.626 26.4306 271.749 27.7474 272.571 29.6127L284.751 57.5935L281.569 64.7259C280.746 66.6461 281.569 67.9629 283.544 67.9629Z" fill="#116DC4"/>
<path d="M113.719 77.2497C115.628 77.2497 116.901 76.3511 116.901 74.9533C116.901 72.1577 112.521 73.3059 112.521 71.9081C112.521 71.4588 112.995 71.2092 113.706 71.2092C114.131 71.2092 114.567 71.359 114.954 71.5961C115.279 71.7833 115.466 72.008 115.928 71.9081L116.09 71.8707C116.689 71.7334 116.764 71.2342 116.352 70.8348C115.74 70.2233 114.655 69.8988 113.669 69.8988C111.984 69.8988 110.661 70.6726 110.661 72.0204C110.661 74.7286 114.992 73.6928 114.992 75.128C114.992 75.6272 114.505 75.9267 113.719 75.9267C113.195 75.9267 112.645 75.7271 112.234 75.4151C111.822 75.1155 111.634 74.9907 111.248 75.0656L111.06 75.1031C110.411 75.2403 110.349 75.7395 110.736 76.1639C111.36 76.8503 112.521 77.2497 113.719 77.2497ZM118.31 69.125C118.884 69.125 119.383 68.7881 119.383 68.1765C119.383 67.5525 118.884 67.2156 118.31 67.2156C117.674 67.2156 117.224 67.5525 117.224 68.1765C117.224 68.7881 117.674 69.125 118.31 69.125ZM118.173 77.1373H118.41C118.947 77.1373 119.234 76.8503 119.234 76.3136V70.8348C119.234 70.2982 118.947 69.9986 118.41 69.9986H118.173C117.636 69.9986 117.349 70.2982 117.349 70.8348V76.3136C117.349 76.8503 117.636 77.1373 118.173 77.1373ZM120.772 77.1373H125.127C125.664 77.1373 125.951 76.8752 125.951 76.376C125.951 75.8768 125.664 75.6147 125.127 75.6147H122.219L125.589 71.9705C125.876 71.6585 126.001 71.359 126.001 70.9347V70.7599C126.001 70.2732 125.701 69.9986 125.165 69.9986H120.809C120.273 69.9986 119.986 70.2732 119.986 70.7599C119.986 71.2467 120.273 71.5212 120.809 71.5212H123.692L120.347 75.1779C120.06 75.4899 119.948 75.7895 119.948 76.2013V76.376C119.948 76.8628 120.235 77.1373 120.772 77.1373ZM132.62 77.2497C132.732 77.2497 132.857 77.2497 132.969 77.2372C133.506 77.1872 133.718 76.8752 133.693 76.4135C133.668 75.9767 133.381 75.7895 132.932 75.7645C132.045 75.7395 131.696 75.3027 131.696 74.1296V71.4339H132.819C133.393 71.4339 133.655 71.1843 133.655 70.71C133.655 70.2482 133.393 69.9986 132.819 69.9986H131.696V69.2249C131.696 68.6258 131.421 68.3762 130.785 68.5135L130.56 68.5634C130.024 68.6757 129.787 68.9378 129.787 69.4246V69.9986H129.425C129.013 69.9986 128.788 70.2482 128.788 70.71C128.788 71.1593 129.038 71.4339 129.487 71.4339H129.787V74.2918C129.787 76.4759 130.673 77.2497 132.62 77.2497ZM136.591 77.2746C137.589 77.2746 138.55 76.7754 138.912 75.9267V76.426C138.912 76.8752 139.212 77.1248 139.736 77.1248H139.973C140.51 77.1248 140.797 76.8378 140.797 76.3012V70.8348C140.797 70.2982 140.51 70.0111 139.973 70.0111H139.736C139.212 70.0111 138.912 70.2732 138.912 70.735V71.2591C138.538 70.3855 137.589 69.8863 136.591 69.8863C134.806 69.8863 133.471 71.1718 133.471 73.568C133.471 75.9767 134.819 77.2746 136.591 77.2746ZM137.165 75.7146C136.079 75.7146 135.355 74.9034 135.355 73.568C135.355 72.2451 136.092 71.4339 137.152 71.4339C138.238 71.4339 138.962 72.2576 138.962 73.568C138.962 74.9034 138.238 75.7146 137.165 75.7146ZM145.791 69.8988C144.718 69.8988 143.907 70.4354 143.582 71.1718V70.8099C143.582 70.2982 143.295 69.9986 142.759 69.9986H142.522C141.985 69.9986 141.698 70.2982 141.698 70.8348V76.3136C141.698 76.8503 141.985 77.1373 142.522 77.1373H142.759C143.295 77.1373 143.582 76.8503 143.582 76.3136V73.5056C143.582 72.1827 144.019 71.4713 145.118 71.4713C146.191 71.4713 146.665 72.0828 146.665 73.3933V76.3136C146.665 76.8503 146.965 77.1373 147.501 77.1373H147.726C148.263 77.1373 148.562 76.8503 148.562 76.3136V73.2185C148.562 70.9596 147.713 69.8988 145.791 69.8988ZM150.121 77.1373H150.371C150.908 77.1373 151.195 76.8503 151.195 76.3136V68.5135C151.195 67.9768 150.908 67.6773 150.371 67.6773H150.121C149.585 67.6773 149.298 67.9768 149.298 68.5135V76.3136C149.298 76.8503 149.585 77.1373 150.121 77.1373ZM154.929 77.2746C155.928 77.2746 156.889 76.7754 157.251 75.9267V76.426C157.251 76.8752 157.55 77.1248 158.074 77.1248H158.312C158.848 77.1248 159.135 76.8378 159.135 76.3012V70.8348C159.135 70.2982 158.848 70.0111 158.312 70.0111H158.074C157.55 70.0111 157.251 70.2732 157.251 70.735V71.2591C156.876 70.3855 155.928 69.8863 154.929 69.8863C153.145 69.8863 151.809 71.1718 151.809 73.568C151.809 75.9767 153.157 77.2746 154.929 77.2746ZM155.504 75.7146C154.418 75.7146 153.694 74.9034 153.694 73.568C153.694 72.2451 154.43 71.4339 155.491 71.4339C156.577 71.4339 157.301 72.2576 157.301 73.568C157.301 74.9034 156.577 75.7146 155.504 75.7146ZM164.13 69.8988C163.057 69.8988 162.246 70.4354 161.921 71.1718V70.8099C161.921 70.2982 161.634 69.9986 161.097 69.9986H160.86C160.324 69.9986 160.037 70.2982 160.037 70.8348V76.3136C160.037 76.8503 160.324 77.1373 160.86 77.1373H161.097C161.634 77.1373 161.921 76.8503 161.921 76.3136V73.5056C161.921 72.1827 162.358 71.4713 163.456 71.4713C164.529 71.4713 165.004 72.0828 165.004 73.3933V76.3136C165.004 76.8503 165.303 77.1373 165.84 77.1373H166.065C166.601 77.1373 166.901 76.8503 166.901 76.3136V73.2185C166.901 70.9596 166.052 69.8988 164.13 69.8988ZM173.889 69.9986H173.664C173.128 69.9986 172.878 70.2857 172.866 70.8348V71.1593C172.504 70.4105 171.643 69.8863 170.532 69.8863C168.747 69.8863 167.387 71.0969 167.387 73.3433C167.387 75.5898 168.76 76.8004 170.557 76.8004C171.555 76.8004 172.479 76.3261 172.828 75.5523V76.2263C172.828 77.6865 172.179 78.273 171.006 78.273C170.407 78.273 169.908 78.0609 169.533 77.6865C169.246 77.3994 169.009 77.2372 168.56 77.3495L168.323 77.4119C167.761 77.5492 167.599 77.9735 167.948 78.4478C168.585 79.2839 169.646 79.7332 171.031 79.7332C173.49 79.7332 174.713 78.5726 174.713 75.8893V70.8348C174.713 70.2982 174.426 70.0111 173.889 70.0111V69.9986ZM171.068 75.4151C170.008 75.4151 169.271 74.6662 169.271 73.3433C169.271 72.0454 170.008 71.2841 171.068 71.2841C172.142 71.2841 172.866 72.0454 172.866 73.3433C172.866 74.6538 172.142 75.4151 171.068 75.4151ZM175.289 78.6474H175.339C175.801 78.6474 176.063 78.4727 176.275 78.0609L177.536 75.5773C177.835 75.0032 177.661 74.5914 176.937 74.5914H176.812C176.35 74.5914 176.038 74.8035 175.851 75.2528L174.89 77.6989C174.665 78.273 174.815 78.6474 175.289 78.6474ZM184.989 77.2746C186.749 77.2746 188.109 75.9767 188.109 73.568C188.109 71.1718 186.761 69.8863 184.989 69.8863C183.99 69.8863 183.029 70.3855 182.668 71.2467V68.5135C182.668 67.9768 182.38 67.6773 181.844 67.6773H181.607C181.07 67.6773 180.783 67.9768 180.783 68.5135V76.3012C180.783 76.8378 181.07 77.1248 181.607 77.1248H181.844C182.368 77.1248 182.668 76.8752 182.668 76.426V75.9267C183.029 76.7754 183.99 77.2746 184.989 77.2746ZM184.427 75.7146C183.341 75.7146 182.618 74.9034 182.618 73.568C182.618 72.2451 183.341 71.4339 184.402 71.4339C185.488 71.4339 186.224 72.2576 186.224 73.568C186.224 74.8909 185.501 75.7146 184.427 75.7146ZM189.673 69.125C190.247 69.125 190.746 68.7881 190.746 68.1765C190.746 67.5525 190.247 67.2156 189.673 67.2156C189.036 67.2156 188.587 67.5525 188.587 68.1765C188.587 68.7881 189.036 69.125 189.673 69.125ZM189.535 77.1373H189.772C190.309 77.1373 190.596 76.8503 190.596 76.3136V70.8348C190.596 70.2982 190.309 69.9986 189.772 69.9986H189.535C188.999 69.9986 188.712 70.2982 188.712 70.8348V76.3136C188.712 76.8503 188.999 77.1373 189.535 77.1373ZM192.134 77.1373H196.49C197.027 77.1373 197.314 76.8752 197.314 76.376C197.314 75.8768 197.027 75.6147 196.49 75.6147H193.582L196.952 71.9705C197.239 71.6585 197.363 71.359 197.363 70.9347V70.7599C197.363 70.2732 197.064 69.9986 196.527 69.9986H192.172C191.635 69.9986 191.348 70.2732 191.348 70.7599C191.348 71.2467 191.635 71.5212 192.172 71.5212H195.055L191.71 75.1779C191.423 75.4899 191.311 75.7895 191.311 76.2013V76.376C191.311 76.8628 191.598 77.1373 192.134 77.1373ZM204.169 77.2746C206.041 77.2746 207.863 76.1639 207.863 73.568C207.863 70.9971 206.029 69.8863 204.169 69.8863C202.31 69.8863 200.488 70.9971 200.488 73.568C200.488 76.1639 202.297 77.2746 204.169 77.2746ZM204.169 75.7146C203.108 75.7146 202.372 74.9283 202.372 73.568C202.372 72.2201 203.108 71.4339 204.169 71.4339C205.23 71.4339 205.966 72.2326 205.966 73.568C205.966 74.9283 205.243 75.7146 204.169 75.7146ZM209.283 77.1373H209.532C210.069 77.1373 210.356 76.8503 210.356 76.3136V68.5135C210.356 67.9768 210.069 67.6773 209.532 67.6773H209.283C208.746 67.6773 208.459 67.9768 208.459 68.5135V76.3136C208.459 76.8503 208.746 77.1373 209.283 77.1373ZM212.169 69.125C212.743 69.125 213.242 68.7881 213.242 68.1765C213.242 67.5525 212.743 67.2156 212.169 67.2156C211.532 67.2156 211.083 67.5525 211.083 68.1765C211.083 68.7881 211.532 69.125 212.169 69.125ZM212.031 77.1373H212.268C212.805 77.1373 213.092 76.8503 213.092 76.3136V70.8348C213.092 70.2982 212.805 69.9986 212.268 69.9986H212.031C211.495 69.9986 211.208 70.2982 211.208 70.8348V76.3136C211.208 76.8503 211.495 77.1373 212.031 77.1373ZM218.187 77.2746C219.947 77.2746 221.307 75.9767 221.307 73.568C221.307 71.1718 219.959 69.8863 218.187 69.8863C217.189 69.8863 216.228 70.3855 215.866 71.2467V68.5135C215.866 67.9768 215.579 67.6773 215.042 67.6773H214.805C214.268 67.6773 213.981 67.9768 213.981 68.5135V76.3012C213.981 76.8378 214.268 77.1248 214.805 77.1248H215.042C215.566 77.1248 215.866 76.8752 215.866 76.426V75.9267C216.228 76.7754 217.189 77.2746 218.187 77.2746ZM217.626 75.7146C216.54 75.7146 215.816 74.9034 215.816 73.568C215.816 72.2451 216.54 71.4339 217.601 71.4339C218.686 71.4339 219.423 72.2576 219.423 73.568C219.423 74.8909 218.699 75.7146 217.626 75.7146ZM230.838 76.1389L228.504 73.4307L230.663 71.0095C231.087 70.4604 230.875 69.9986 230.164 69.9986H229.802C229.365 69.9986 229.053 70.1609 228.804 70.5228L226.57 73.2061V68.5135C226.57 67.9768 226.27 67.6773 225.733 67.6773H225.496C224.96 67.6773 224.673 67.9768 224.673 68.5135V76.3136C224.673 76.8503 224.96 77.1373 225.496 77.1373H225.733C226.27 77.1373 226.57 76.8503 226.57 76.3136V73.7302L228.941 76.6132C229.19 76.9751 229.49 77.1373 229.939 77.1373H230.339C231.038 77.1373 231.25 76.688 230.838 76.1389ZM234.595 77.2621C235.943 77.2621 236.966 76.8004 237.578 75.9767C237.94 75.5274 237.84 75.2029 237.266 75.0656L237.091 75.0282C236.667 74.9158 236.479 75.0906 236.167 75.3402C235.755 75.6771 235.331 75.8519 234.682 75.8519C233.522 75.8519 232.81 75.1779 232.773 74.0048H237.241C237.815 74.0048 238.114 73.7302 238.077 73.1811C237.94 71.1593 236.617 69.8863 234.545 69.8863C232.373 69.8863 230.888 71.3715 230.888 73.568C230.888 75.8144 232.348 77.2621 234.595 77.2621ZM236.33 72.7693H232.81C232.922 71.7459 233.621 71.2092 234.582 71.2092C235.606 71.2092 236.255 71.8083 236.33 72.7693ZM239.513 77.1373H239.762C240.299 77.1373 240.586 76.8503 240.586 76.3136V68.5135C240.586 67.9768 240.299 67.6773 239.762 67.6773H239.513C238.976 67.6773 238.689 67.9768 238.689 68.5135V76.3136C238.689 76.8503 238.976 77.1373 239.513 77.1373ZM244.321 77.2746C245.319 77.2746 246.28 76.7754 246.642 75.9267V76.426C246.642 76.8752 246.941 77.1248 247.466 77.1248H247.703C248.239 77.1248 248.526 76.8378 248.526 76.3012V70.8348C248.526 70.2982 248.239 70.0111 247.703 70.0111H247.466C246.941 70.0111 246.642 70.2732 246.642 70.735V71.2591C246.267 70.3855 245.319 69.8863 244.321 69.8863C242.536 69.8863 241.2 71.1718 241.2 73.568C241.2 75.9767 242.548 77.2746 244.321 77.2746ZM244.895 75.7146C243.809 75.7146 243.085 74.9034 243.085 73.568C243.085 72.2451 243.821 71.4339 244.882 71.4339C245.968 71.4339 246.692 72.2576 246.692 73.568C246.692 74.9034 245.968 75.7146 244.895 75.7146ZM258.039 69.8863C256.704 69.8863 255.867 70.6476 255.543 71.4214C255.144 70.3106 254.545 69.8988 253.396 69.8988C252.373 69.8988 251.599 70.423 251.312 71.1219V70.7849C251.312 70.2732 251.025 70.0111 250.488 70.0111H250.251C249.715 70.0111 249.428 70.2982 249.428 70.8348V76.3136C249.428 76.8503 249.715 77.1498 250.251 77.1498H250.488C251.025 77.1498 251.312 76.8503 251.312 76.3136V73.6304C251.312 72.1078 251.724 71.4713 252.722 71.4713C253.683 71.4713 254.02 72.0204 254.02 73.5555V76.3136C254.02 76.8503 254.32 77.1498 254.857 77.1498H255.081C255.618 77.1498 255.917 76.8503 255.917 76.3136V73.4931C255.917 72.0579 256.329 71.4713 257.315 71.4713C258.301 71.4713 258.676 72.0454 258.676 73.5555V76.3136C258.676 76.8503 258.975 77.1498 259.512 77.1498H259.736C260.273 77.1498 260.572 76.8503 260.572 76.3136V73.3808C260.572 70.8972 259.824 69.8863 258.039 69.8863ZM262.254 69.125C262.828 69.125 263.327 68.7881 263.327 68.1765C263.327 67.5525 262.828 67.2156 262.254 67.2156C261.617 67.2156 261.168 67.5525 261.168 68.1765C261.168 68.7881 261.617 69.125 262.254 69.125ZM262.117 77.1373H262.354C262.89 77.1373 263.177 76.8503 263.177 76.3136V70.8348C263.177 70.2982 262.89 69.9986 262.354 69.9986H262.117C261.58 69.9986 261.293 70.2982 261.293 70.8348V76.3136C261.293 76.8503 261.58 77.1373 262.117 77.1373ZM264.716 77.1373H269.071C269.608 77.1373 269.895 76.8752 269.895 76.376C269.895 75.8768 269.608 75.6147 269.071 75.6147H266.163L269.533 71.9705C269.82 71.6585 269.945 71.359 269.945 70.9347V70.7599C269.945 70.2732 269.645 69.9986 269.109 69.9986H264.753C264.216 69.9986 263.929 70.2732 263.929 70.7599C263.929 71.2467 264.216 71.5212 264.753 71.5212H267.636L264.291 75.1779C264.004 75.4899 263.892 75.7895 263.892 76.2013V76.376C263.892 76.8628 264.179 77.1373 264.716 77.1373Z" fill="#4C4C4C"/>
<defs>
<linearGradient id="paint0_linear_111_4" x1="-7.93765" y1="51.2642" x2="86.3225" y2="51.2642" gradientUnits="userSpaceOnUse">
<stop stop-color="#FFF1EB"/>
<stop offset="1" stop-color="#ACE0F9"/>
</linearGradient>
<linearGradient id="paint1_linear_111_4" x1="26.2935" y1="2.14967" x2="52.2564" y2="2.14967" gradientUnits="userSpaceOnUse">
<stop stop-color="#FFF1EB"/>
<stop offset="1" stop-color="#ACE0F9"/>
</linearGradient>
<linearGradient id="paint2_linear_111_4" x1="46.3033" y1="2.14967" x2="73.093" y2="2.14967" gradientUnits="userSpaceOnUse">
<stop stop-color="#FFF1EB"/>
<stop offset="1" stop-color="#ACE0F9"/>
</linearGradient>
</defs>
</svg>
